<?xml version="1.0" encoding="UTF-8"?>
<!-- Generated by Pixelmator Pro 3.5.7 -->
<svg width="19" height="20" viewBox="0 0 19 20" xmlns="http://www.w3.org/2000/svg">
    <g id="icbooksbicolor">
        <path id="Shape" fill="#000000" stroke="none" opacity="0.3" d="M 9.5 1.25 L 17.625 1.25 L 17.625 18.75 L 9.5 18.75 L 9.5 1.25 Z M 1.375 4.338236 L 9.5 4.338236 L 9.5 18.75 L 1.375 18.75 L 1.375 4.338236 Z"/>
        <path id="path1" fill="#000000" stroke="none" d="M 17.875 20 L 9.875 20 C 9.275001 20 8.875 19.578947 8.875 18.947369 L 8.875 1.052631 C 8.875 0.421053 9.275001 0 9.875 0 L 17.875 0 C 18.475 0 18.875 0.421053 18.875 1.052631 L 18.875 18.947369 C 18.875 19.578947 18.475 20 17.875 20 Z M 10.875 17.894737 L 16.875 17.894737 L 16.875 2.105263 L 10.875 2.105263 L 10.875 17.894737 Z"/>
        <path id="path2" fill="#000000" stroke="none" d="M 12.336538 14.204545 L 17.625 14.204545 L 17.625 16.25 L 12.336538 16.25 L 12.336538 14.204545 Z M 12.336538 5 L 17.625 5 L 17.625 7.045455 L 12.336538 7.045455 L 12.336538 5 Z M 3.875 14.204545 L 8.105769 14.204545 L 8.105769 16.25 L 3.875 16.25 L 3.875 14.204545 Z M 3.875 8.068182 L 8.105769 8.068182 L 8.105769 10.113636 L 3.875 10.113636 L 3.875 8.068182 Z"/>
        <path id="path3" fill="#000000" stroke="none" d="M 9.125 20 L 1.125 20 C 0.525 20 0.125 19.59375 0.125 18.984375 L 0.125 4.765625 C 0.125 4.15625 0.525 3.75 1.125 3.75 L 9.125 3.75 C 9.724999 3.75 10.125 4.15625 10.125 4.765625 L 10.125 18.984375 C 10.125 19.59375 9.724999 20 9.125 20 Z M 2.125 17.96875 L 8.125 17.96875 L 8.125 5.78125 L 2.125 5.78125 L 2.125 17.96875 Z"/>
    </g>
</svg>
