<?xml version="1.0" encoding="UTF-8"?>
<!-- Generated by Pixelmator Pro 3.5.7 -->
<svg width="19" height="20" viewBox="0 0 19 20" xmlns="http://www.w3.org/2000/svg">
    <g id="iccalendarbicolor">
        <path id="Path" fill="#000000" stroke="none" opacity="0.3" d="M 1.533198 2.658848 L 17.541153 2.667229 L 17.539057 6.669218 L 1.531102 6.660836 Z"/>
        <path id="Shape" fill="#000000" stroke="none" d="M 2.868591 -0.008446 L 4.869585 -0.007399 L 4.86749 3.994591 L 2.866495 3.993542 L 2.868591 -0.008446 Z M 12.873562 -0.003208 L 14.874557 -0.002161 L 14.872461 3.999828 L 12.871467 3.998781 L 12.873562 -0.003208 Z"/>
        <path id="path1" fill="#000000" stroke="none" d="M 16.800741 1.332846 L 2.275005 1.325239 C 1.133697 1.324642 0.199411 2.25795 0.198813 3.399258 L 0.191208 17.924995 C 0.19061 19.066303 1.123919 20.000589 2.265227 20.001186 L 16.790964 20.008791 C 17.932272 20.00939 18.866556 19.07608 18.867155 17.934772 L 18.87476 3.409037 C 18.875359 2.267729 17.942049 1.333443 16.800741 1.332846 Z M 16.792049 17.933687 L 2.266313 17.926081 L 2.271746 7.550554 L 16.797482 7.55816 L 16.792049 17.933687 Z M 16.798569 5.483055 L 2.272832 5.47545 L 2.273919 3.400345 L 16.799656 3.407949 L 16.798569 5.483055 Z"/>
    </g>
</svg>
